<?xml version="1.0" encoding="UTF-8"?>
<svg id="_レイヤー_2" data-name="レイヤー 2" xmlns="http://www.w3.org/2000/svg" viewBox="0 0 104.99 75.36">
  <defs>
    <style>
      .cls-1 {
        fill: #231815;
      }

      .cls-1, .cls-2 {
        stroke-width: 0px;
      }

      .cls-2 {
        fill: #fff;
      }
    </style>
  </defs>
  <g id="_文字" data-name="文字">
    <g>
      <path class="cls-1" d="m102.23,19.42c-2.35-3.35-10.88-6.74-16.73-3.08-.67.42-2.3,1.53-3.08,1.54-2.46.05-.81-6.12-1.13-7.86-.72-3.89-4.41-5.7-7.86-6.83C63.11-.21,51.31,0,40.6,0-2.75,0,.93,6.46.93,6.46c0,0-3,3.09,1.79,33.84,1.62,10.36,9.41,24.68,15.06,28.22,9.8,6.13,16.69,6.68,27.67,6.84,11.44.16,18.57-5.99,23.86-11.2,3.34-3.29,8.08-5.42,12.15-7.63,2.61-1.42,5.23-2.8,7.84-4.22,2.27-1.24,4.42-2.87,6.4-4.53,1.95-1.62,4.22-3.38,5.77-5.52,1.31-1.82,1.92-4.53,2.53-6.68,1.53-5.35,1.54-11.45-1.77-16.16Zm-3.67,14.14c-1.07,2.18-2.02,3.77-3.92,5.26-1.87,1.46-9,7.74-11.5,6.99-.21-.06-.39-.16-.56-.28-1.85-1.37-1.05-6.21-.85-7.88.64-5.27,3.29-11.11,7.91-13.91,2.35-1.42,7.59-2.35,9.33.69,1.06,1.84.48,7.33-.41,9.15Z"/>
      <g>
        <path class="cls-2" d="m55.62,22.86c-.44.22-.93.42-1.46.6-.53.17-1,.32-1.42.45-.59.17-1.07.22-1.44.15-.37-.07-.78-.32-1.22-.75-.27-.22-.71-.57-1.31-1.05-.6-.47-1.3-1-2.09-1.59-.79-.58-1.63-1.2-2.53-1.85-.9-.65-1.78-1.26-2.64-1.83-.62-.4-1.1-.6-1.44-.62-.35-.01-.7.13-1.07.43-.94.8-1.82,1.53-2.66,2.19-.84.66-1.66,1.27-2.46,1.83-.8.56-1.6,1.07-2.38,1.53-.79.46-1.59.89-2.4,1.29-.86.42-1.52.64-1.98.64s-.82-.24-1.09-.71c-.17-.27-.19-.52-.06-.73.14-.21.52-.44,1.17-.69,1.8-.67,3.4-1.37,4.79-2.09,1.39-.72,2.58-1.43,3.57-2.13.99-.7,1.77-1.36,2.37-1.98.59-.62,1-1.17,1.22-1.64.12-.3.29-.51.5-.63.21-.12.42-.19.63-.19s.41.07.59.21c.19.14.33.33.43.58.22.6.43,1.02.61,1.25.19.24.47.48.87.73,1.28.87,2.49,1.64,3.62,2.3,1.13.66,2.21,1.22,3.24,1.68,1.02.46,2.01.85,2.96,1.16.95.31,1.89.55,2.83.73.37.07.58.19.63.34s-.06.29-.33.41Zm-19.15-12.92c-.15.27-.25.73-.3,1.38.3-.02.67-.04,1.11-.06.44-.01.92-.02,1.42-.02s1.02,0,1.55.02c.53.01,1.02.02,1.46.02.52.03,1,.04,1.46.04h1.31c-.02-.42-.04-.82-.04-1.18v-.88c-.02-.85.15-1.33.52-1.44.37-.11.8,0,1.29.35.47.35.73.67.78.97s-.01.61-.18.93c-.05.12-.11.3-.19.52s-.14.47-.19.75h3.01c.83,0,1.52-.02,2.09-.07.57-.02.91.04,1.02.19s.03.46-.24.93c-.17.27-.34.49-.5.65-.16.16-.35.28-.57.35-.22.07-.49.1-.81.07-.32-.02-.73-.1-1.22-.22-.49-.12-.97-.23-1.44-.32-.47-.09-.97-.16-1.52-.21-.05.37-.05.75,0,1.12.05.92-.02,1.55-.2,1.89-.18.34-.39.5-.61.5-.49,0-.78-.6-.85-1.79-.02-.27-.04-.57-.06-.88-.01-.31-.02-.64-.02-.99-.39-.02-.81-.04-1.24-.04h-1.39c-.96.03-1.94.05-2.94.07-1,.03-1.97.06-2.9.11,0,.22,0,.46.02.71.01.25.03.5.06.75.05.72.01,1.25-.11,1.59-.12.34-.3.5-.52.5s-.42-.07-.59-.22c-.17-.15-.28-.44-.33-.86-.05-.37-.09-.76-.13-1.16-.04-.4-.08-.81-.13-1.23-.49.05-.96.09-1.39.11-.43.03-.83.06-1.2.11-.67.07-1.21.12-1.65.13-.43.01-.78,0-1.04-.02-.26-.02-.45-.07-.57-.13-.12-.06-.21-.13-.26-.21-.27-.4-.1-.77.52-1.1.62-.34,1.79-.45,3.51-.35.34.03.67.04.98.04h.91c-.05-.37-.1-.74-.15-1.1-.05-.36-.1-.68-.15-.95-.1-.65-.03-1.08.2-1.31.23-.22.67-.21,1.31.04.64.25,1.02.55,1.13.9.11.35.09.67-.06.97Zm-.18,17.7c-.42.82-.89,1.56-1.42,2.22-.53.66-1.08,1.23-1.65,1.7-.37.32-.71.47-1.02.45-.31-.02-.62-.19-.94-.49-.35-.27-.49-.58-.42-.92.06-.34.34-.64.83-.92.81-.5,1.51-.96,2.09-1.38.58-.42,1.13-.88,1.65-1.38.49-.47.83-.62,1.02-.43s.14.57-.13,1.14Zm5.4,3.03c0,.87-.04,1.47-.11,1.79-.07.32-.2.58-.37.78-.22.27-.45.37-.68.3-.23-.07-.44-.3-.61-.67-.1-.25-.16-.52-.18-.82-.02-.3-.04-.86-.04-1.68v-5.83c-1.41.05-2.52.11-3.35.19-.83.07-1.49.15-1.98.22-.94.17-1.47.09-1.59-.26-.12-.35.15-.82.81-1.42.32-.32.69-.54,1.11-.64.42-.1.81-.09,1.18.04.49.15,1.07.26,1.74.32.67.06,1.37.09,2.11.09,0-.17,0-.35.02-.52.01-.17.02-.36.02-.56.02-.87.08-1.43.17-1.68.09-.25.29-.37.61-.37s.58.18.79.54c.21.36.31.79.31,1.29v1.23c.81-.05,1.56-.08,2.24-.09.68-.01,1.4-.03,2.16-.06.49,0,.81.04.96.11s.22.22.22.45c0,.27-.09.49-.26.64-.17.15-.47.24-.89.26-.86.03-1.66.05-2.38.07-.73.03-1.41.05-2.05.07v3.19c0,1.01.01,2.01.04,3.01Zm8.36.56c-.32.3-.67.44-1.04.43-.37-.01-.83-.3-1.37-.88-.35-.35-.67-.71-.98-1.08-.31-.37-.71-.86-1.2-1.46-.39-.47-.53-.83-.41-1.06.12-.24.44-.23.96.02.71.35,1.39.69,2.02,1.03.63.34,1.21.62,1.76.84.49.2.77.51.83.93.06.42-.13.83-.57,1.23Z"/>
        <path class="cls-2" d="m39.54,53.86c-.37.57-.72,1.07-1.05,1.49-.33.42-.67.81-1.02,1.16-.35.35-.73.7-1.15,1.05-.42.35-.92.73-1.52,1.16-1.21.9-2.27,1.63-3.18,2.2-.91.57-1.77,1.07-2.59,1.49-.91.45-1.62.65-2.11.62-.49-.04-.88-.27-1.15-.69-.32-.5-.43-.86-.31-1.08.11-.22.56-.46,1.35-.71,1.65-.5,3.11-1.05,4.36-1.64s2.32-1.21,3.18-1.83c-.35-.32-.69-.63-1.04-.92-.35-.29-.7-.54-1.07-.77-.47-.25-.73-.48-.78-.69-.05-.21.14-.48.55-.8.37-.25.74-.32,1.11-.21.37.11.69.34.96.69.1.12.29.34.57.64.28.3.58.66.91,1.08,1.23-1.07,2.01-1.94,2.33-2.61.3-.65.42-1.15.37-1.49-.05-.35-.32-.7-.81-1.05-.49-.3-.88-.53-1.16-.69-.28-.16-.52-.24-.72-.24s-.38.06-.54.19c-.16.12-.35.31-.57.56-.94,1-1.81,1.82-2.63,2.48-.81.66-1.47,1.13-1.96,1.4-.42.25-.81.39-1.18.41-.37.03-.65-.06-.85-.26-.17-.17-.21-.44-.11-.78.1-.35.5-.73,1.22-1.16.91-.52,1.69-.99,2.33-1.4.64-.41,1.17-.8,1.59-1.16.42-.36.75-.7.98-1.01.23-.31.41-.62.54-.92.17-.5.36-.79.55-.88.2-.09.44.04.74.39.25.27.56.57.94.88.38.31.89.67,1.53,1.06,1.08.67,1.7,1.34,1.85,2,.15.66-.01,1.34-.48,2.04Zm-2.63-12.81c-.05.17-.1.36-.15.56-.05.2-.09.44-.11.71.3-.02.72-.04,1.28-.06.55-.01,1.15-.02,1.77-.02s1.26,0,1.89.02c.63.01,1.17.02,1.61.02.39.03.76.04,1.09.04h1.02c-.02-.35-.04-.68-.06-1.01-.01-.32-.03-.62-.06-.9-.05-.87.12-1.41.52-1.61.39-.2.86-.09,1.41.34.49.4.76.78.81,1.14.05.36-.01.73-.19,1.1-.07.15-.14.31-.2.47-.06.16-.12.33-.17.5h3.55c.86,0,1.63-.02,2.29-.07.59-.02.94.04,1.05.21.11.16.02.49-.28.99-.42.7-.84,1.1-1.28,1.2-.43.1-1.04.04-1.83-.19-.52-.12-1.09-.24-1.72-.34-.63-.1-1.3-.19-2.02-.26-.02.12-.03.24-.02.35.01.11.02.23.02.35.02,1.05-.06,1.77-.24,2.17-.18.4-.38.6-.57.6-.27,0-.48-.15-.63-.45s-.25-.85-.3-1.64c-.02-.25-.04-.5-.04-.75s-.01-.5-.04-.75c-.32-.02-.64-.04-.94-.04h-.94c-1.58.03-2.92.04-4.01.06-1.1.01-2.04.03-2.83.06v.49c0,.15.01.31.04.49.05.77.01,1.36-.11,1.77-.12.41-.28.62-.48.62-.27,0-.49-.09-.67-.26-.17-.17-.3-.52-.37-1.05-.05-.3-.09-.62-.13-.95s-.08-.68-.13-1.03c-.72.05-1.35.11-1.9.17-.55.06-1.17.13-1.83.21-1.33.12-2.24.16-2.72.09-.48-.06-.77-.19-.87-.39-.15-.22-.18-.44-.09-.65.09-.21.3-.4.63-.56.33-.16.79-.29,1.37-.37.58-.09,1.31-.11,2.2-.06,1.11.1,2.11.14,3,.11-.05-.35-.09-.69-.13-1.03-.04-.34-.08-.67-.13-.99-.1-.8-.04-1.29.19-1.49.22-.2.65-.15,1.29.15.64.27,1.04.59,1.18.95.15.36.14.69-.04.99Zm19.49,18.75c-.2.35-.46.72-.79,1.12-.33.4-.71.77-1.13,1.12-.44.37-1.04.65-1.77.82-.74.17-1.42.2-2.03.07-1.82-.37-3.25-.75-4.27-1.12-1.02-.37-1.83-.77-2.42-1.2-.81-.6-1.37-1.25-1.68-1.96-.31-.71-.45-1.43-.43-2.15.05-1.94.05-3.36,0-4.26-.05-.9-.17-1.49-.37-1.79-.25-.35-.31-.64-.2-.88.11-.24.31-.45.61-.65.25-.12.49-.22.72-.3.23-.07.51-.13.83-.17s.71-.06,1.17-.06,1.03.01,1.72.04c.99.05,1.78.1,2.37.15.59.05,1.05.12,1.37.21.32.09.55.19.68.32.14.12.24.29.31.49.12.3.16.69.11,1.18-.05.49-.21.99-.48,1.51-.54,1.05-1.18,1.85-1.92,2.41-.74.56-1.64.97-2.7,1.21-.62.15-.97.09-1.05-.19-.09-.27.13-.55.65-.82.96-.5,1.64-.94,2.03-1.33.39-.39.69-.79.89-1.21.27-.65.31-1.19.13-1.62-.19-.44-.57-.69-1.16-.77-.52-.07-.94-.12-1.28-.15-.33-.02-.72-.01-1.17.04-.44.05-.8.17-1.07.35-.27.19-.43.64-.48,1.36-.05.75-.09,1.56-.13,2.45-.04.88-.03,1.76.02,2.63.02.85.26,1.52.72,2.02.46.5,1.31.91,2.57,1.23.79.2,1.6.34,2.42.43.83.09,1.52.13,2.09.13.81,0,1.55-.1,2.22-.3.67-.2,1.38-.54,2.15-1.01.52-.35.85-.47,1-.37.15.1.07.44-.22,1.01Z"/>
      </g>
    </g>
  </g>
</svg>