<?xml version="1.0" encoding="UTF-8"?>
<svg id="_レイヤー_2" data-name="レイヤー 2" xmlns="http://www.w3.org/2000/svg" viewBox="0 0 48.8 72.35">
  <defs>
    <style>
      .cls-1 {
        fill: #040000;
        stroke-width: 0px;
      }
    </style>
  </defs>
  <g id="_文字" data-name="文字">
    <path class="cls-1" d="m23.81,72.35c-4.56-7.26-9.13-14.18-13.32-21.31-4.04-6.88-7.83-13.94-9.82-21.77C-2.72,15.92,7.17,1.78,21.02.18c14.92-1.73,27.61,9.13,27.78,23.85.06,5.59-2.21,10.61-4.51,15.51-5.08,10.82-11.24,21.02-18.3,30.68-.27.37-.55.75-.86,1.09-.2.22-.47.38-1.32,1.04Zm.66-38.58c5.12-.03,9.25-4.19,9.29-9.34.04-5.2-4.21-9.42-9.48-9.41-4.95,0-9.26,4.26-9.28,9.15-.02,5.47,4.1,9.64,9.47,9.6Z"/>
  </g>
</svg>