<?xml version="1.0" encoding="UTF-8"?>
<svg id="_レイヤー_2" data-name="レイヤー 2" xmlns="http://www.w3.org/2000/svg" viewBox="0 0 63.11 82.44">
  <defs>
    <style>
      .cls-1 {
        stroke-width: 0px;
      }
    </style>
  </defs>
  <g id="_文字" data-name="文字">
    <path class="cls-1" d="m48.49,82.44c-3.26-1.03-6.62-1.82-9.75-3.15-5.2-2.21-9.42-5.9-13.5-9.75C12.72,57.75,4.56,43.45.81,26.68-.23,22.03-.23,17.3.57,12.57,1.55,6.74,4.63,2.87,10.41,1.04c5.09-1.61,5.04-1.78,7.92,2.66,2.78,4.29,5.52,8.6,8.34,12.86.72,1.08.56,1.96-.04,2.97-2.05,3.42-5.27,4.96-9.01,5.53-1.65.25-2.35,1.13-2.51,2.63-.45,4.16.26,8.12,2.03,11.9,2.95,6.34,6.7,12.13,11.52,17.22,2.46,2.6,5.44,4.34,8.78,5.49,1.45.5,2.69.24,3.61-1.21,2.02-3.16,4.67-5.43,8.58-5.92,1.34-.17,2.23.12,2.97,1.3,3.32,5.22,6.67,10.41,10.09,15.57.59.89.57,1.49-.06,2.25-2.37,2.85-4.65,5.81-8.18,7.36-.77.34-1.6.53-2.4.79h-3.56Z"/>
  </g>
</svg>