<?xml version="1.0" encoding="UTF-8"?>
<svg id="_レイヤー_2" data-name="レイヤー 2" xmlns="http://www.w3.org/2000/svg" viewBox="0 0 56.61 90.5">
  <defs>
    <style>
      .cls-1 {
        fill: #fff;
        stroke-width: 0px;
      }
    </style>
  </defs>
  <g id="_文字" data-name="文字">
    <path class="cls-1" d="m48.91,45.91c-1.65-1.64-5.23-3.55-5.79-5.97-.03-.14-.06-.29-.07-.43-.17-2.22,2.48-3.97,3.57-5.76,1.71-2.79,2.49-6.13,2.49-9.33,0-9.17-7.5-16.85-16.63-18.91.01-.1.02-.2.02-.3v-2.3c0-1.6-.69-2.9-2.39-2.9h-1.82c-1.71,0-3.1,1.31-3.1,2.9v2.3c0,.1,0,.2.02.3C16.09,7.57,7.49,15.25,7.49,24.41c0,3.14.8,6.33,2.41,9.09,1.02,1.75,5.07,3.89,4.18,5.89-1.93,4.33-7.4,6.92-10.04,11.02-2.64,4.1-4.04,8.84-4.04,13.63,0,14.61,12.67,26.45,28.31,26.45s28.31-11.84,28.31-26.45c0-6.71-2.78-13.25-7.7-18.14Z"/>
  </g>
</svg>