<?xml version="1.0" encoding="UTF-8"?>
<svg id="_レイヤー_2" data-name="レイヤー 2" xmlns="http://www.w3.org/2000/svg" viewBox="0 0 73.17 79.11">
  <defs>
    <style>
      .cls-1 {
        fill: #73462d;
      }

      .cls-1, .cls-2 {
        stroke-width: 0px;
      }

      .cls-2 {
        fill: #fff;
      }
    </style>
  </defs>
  <g id="_レイヤー_1-2" data-name="レイヤー 1">
    <g>
      <path class="cls-1" d="m65.02,12.16c-3.49-.65-6.97-.07-8.46.25.1-2.93-.04-5.18-.46-6.15-1.6-3.69-15.99-6.26-27.8-6.26S2.09,2.58.49,6.26c-1.6,3.68.92,25.71,4.67,33.34,4.06,8.24,7.63,14.4,23.13,14.4,12.72,0,17.41-4.15,20.92-10.2,9.16-2.14,22.82-12.74,23.8-20.56,1.11-8.86-4.06-10.34-8-11.08Zm2.22,12.68c-1.48,3.07-7.26,7.87-9.23,7.74-1.97-.12-2.59-2.58-.62-7.99,1.24-3.4,3.07-7.62,7.01-7.38,3.94.24,4.31,4.56,2.83,7.63Z"/>
      <g>
        <path class="cls-2" d="m22.14,16.49l.98-.46,1.4-.8c.43-.24,1.95-1.29,2.18-1.5l1.38-1.31c.14-.14.35-.3.54-.3.58,0,.58.47.58.7l1.94,1.36,2.62,1.68,1.85,1.08c.16.09,1.68.89,3.77,1.29-.84,1.38-1.97,1.55-2.29,1.55-.23,0-.54-.12-.68-.24l-2.32-1.85-5.47-3.84-.17-.07-1.52,1.33-.77.61-2.25,1.55-1.92,1.19c-.33.21-1.88.96-2.27.96-.63,0-1.88-1.24-1.83-1.57,1.1-.19,2.29-.52,2.55-.63l1.68-.73Zm13.71-5.92c1.9.07,2.27.21,2.27.7s-.73.49-.96.49l-4.07-.14h-.35c-.02.33-.09,1.62-.16,1.85-.05.19-.17.42-.45.42-.65,0-.65-.86-.65-1.26s0-.84-.05-1.05l-3.37-.07h-2.32c-.02,1.36-.02,2.29-.65,2.29-.59,0-.61-1.22-.64-2.27-.33-.07-.42-.07-.84-.07l-2.41.05s-.94.09-1.13.09c-.7,0-.86-.4-.86-.59,0-.35.47-.89,1.61-.89.24,0,1.27.14,1.47.14l1.9.05c.12,0,.14,0,.26-.02,0-.19-.05-1.08-.05-1.26,0-.14,0-.84.66-.84.73,0,.73.75.73,1.07s-.02.7-.07,1.05c.26.05.32.02,1.05.05l4.24.07h.39c.02-.24.02-1.31.02-1.52,0-.24.07-.66.61-.66.77,0,.77.68.77.93,0,.21-.07,1.1-.02,1.27l3.07.11Zm-11.79,10.95c.42-.33.54-.45.77-.45.3,0,.33.24.33.49,0,.82-2.09,3-2.69,3-.54,0-1.43-.84-1.69-1.34,1.15-.28,2.34-.96,3.28-1.71Zm3.74-4.87c0-.45.26-.68.75-.68.56,0,.77.4.77.68l.02,2.1,2.29.14,2.36.07c.21,0,1.1.02,1.1.61,0,.42-.63.52-.73.52l-3.09-.09-1.92-.07-.07,4.36c0,.56-.09,2.5-.8,2.5-.44,0-.56-.68-.56-.89l-.05-3.81-.05-2.18-.21-.02-2.22-.04-2.41.07c-.33,0-.91-.07-.91-.56,0-.45.65-.75,1.33-.75.28,0,1.45.11,1.68.11h2.74l-.05-2.06Zm7.07,8.21c-.79,0-2.81-2.57-2.81-3.11,0-.14.14-.4.4-.4.14,0,.82.47,1.01.59,1.29.82,1.47.89,3.09,1.43-.58.87-1.02,1.5-1.68,1.5Z"/>
        <path class="cls-2" d="m23.12,32.76s.4-.68.73-.68c.17,0,.5.16.5.49,0,.37-.33,1.1-.52,1.5-.05.07-.32.65-.37.82l1.75-.02c.28,0,1.5.02,1.75.02.17-.02.84-.16.99-.16.3,0,.61.33.61.68,0,.19-.05.33-.17.54-.02.07-.19.39-.23.46l-.82,2.01c-1.32,3.2-3.4,4.89-4.08,5.45-.19.17-2.39,1.99-3.28,1.99-.35,0-.61-.16-.71-.21-.18-.14-1.19-.94-1.36-1.1.45-.07.94-.21,1.19-.33l1.59-.7c1.08-.47,2.81-1.8,3.56-2.81l-1.78-1.22c-.82-.56-.91-.63-.91-.87,0-.33.28-.63.47-.63.05,0,.42.05.65.19l1.92,1.19c.07.02.38.24.43.28.21-.28.25-.35.3-.45l.68-1.22c.14-.26.71-1.52.8-1.87l-.05-.05h-3.67q-.25,0-.37.02s-.19.23-.21.28l-1.17,1.47c-.33.4-1.57,1.62-2.16,1.62-.37,0-.49-.09-1.55-.98,2.2-1.17,3.91-3.16,4.47-4.07l1.01-1.66Zm3.02-2.95l5.12.02c.07-2.06.07-2.27.77-2.27.4,0,.72.12.72.63,0,.28-.09,1.43-.07,1.66l3.86.07c1.45.02,2.39.09,2.39.73,0,.54-.75.51-1.1.51l-5.22-.11c-.07,1.33-.11,2.34-.75,2.34-.59,0-.59-.82-.59-1.64,0-.12,0-.54-.02-.73l-3.51-.02-1.62.02c-.02.26-.12,1.38-.19,1.61-.07.28-.23.73-.63.73-.51,0-.56-.49-.56-1.8q0-.28-.02-.51l-2.71.04-2.72.17c-.42.02-.77-.26-.77-.63,0-.61.96-.94,1.57-.94.19,0,1.25.09,1.27.09h3.32c-.05-1.59-.07-2.22.68-2.22.14,0,.77.07.77,1.01v1.24Zm9.25,5.76l-.05-.07-3.49-.05-.91.07-.05,5.69-.07,1.05c-.09,1.31-.09,1.66.8,1.68l2.66.05,1.95-.07c1.1-.05,1.75-.56,3.41-1.92,0,.89-.58,3.46-2.2,3.46-.21,0-1.14-.07-1.33-.07l-3.6-.07-2.18.05c-1.36.02-1.32-.33-1.25-1.03l.19-2.01.09-1.08.09-4.4c0-.35-.21-2.15-.21-2.22,0-.19.17-.61.65-.63.14,0,.7.28.84.28.17,0,.87-.05,1.03-.05l3.37.05c.21,0,.4-.02.68-.12.14-.05.56-.21.66-.21.16,0,.63.21.63.63,0,.19-.21.96-.23,1.12-.02.09-.07.4-.07.73l-.05,2.53c-.02,1.12-.05,1.73-.65,2.18-.75.58-2.01.7-2.22.7-.33,0-.84,0-1.36-1.83.68.02.86.02,1.1.02,1.1,0,1.62-.26,1.64-1.01l.12-3.46Z"/>
      </g>
      <g>
        <path class="cls-1" d="m10.27,58.28h2.68v3.28l2.81-3.28h3.56l-3.17,3.27,3.31,5.4h-3.3l-1.83-3.56-1.38,1.45v2.12h-2.68v-8.67Z"/>
        <path class="cls-1" d="m25.99,58.28h2.67v5.16c0,.51-.08,1-.24,1.45-.16.46-.41.86-.75,1.19-.34.34-.7.58-1.08.72-.52.19-1.14.29-1.87.29-.42,0-.88-.03-1.38-.09-.5-.06-.92-.18-1.25-.35-.34-.18-.64-.43-.92-.75-.28-.32-.47-.65-.57-1-.17-.55-.25-1.04-.25-1.47v-5.16h2.67v5.29c0,.47.13.84.39,1.11.26.27.63.4,1.09.4s.82-.13,1.08-.39c.26-.26.39-.63.39-1.12v-5.29Z"/>
        <path class="cls-1" d="m30.47,66.95v-8.67h4.46c.83,0,1.46.07,1.9.21s.79.41,1.06.79c.27.39.4.86.4,1.41,0,.48-.1.89-.31,1.24-.2.35-.48.63-.84.85-.23.14-.54.26-.94.35.32.11.55.21.7.32.1.07.24.22.43.45.19.23.31.41.37.54l1.3,2.51h-3.03l-1.43-2.65c-.18-.34-.34-.56-.48-.67-.19-.13-.41-.2-.66-.2h-.24v3.52h-2.69Zm2.69-5.16h1.13c.12,0,.36-.04.71-.12.18-.04.32-.13.43-.27.11-.15.17-.31.17-.5,0-.28-.09-.5-.27-.65s-.51-.22-1-.22h-1.18v1.76Z"/>
        <path class="cls-1" d="m39.51,62.62c0-1.42.39-2.51,1.18-3.3s1.88-1.18,3.29-1.18,2.55.39,3.33,1.16c.78.78,1.17,1.86,1.17,3.26,0,1.01-.17,1.84-.51,2.49-.34.65-.83,1.15-1.48,1.51-.64.36-1.45.54-2.41.54s-1.79-.16-2.43-.47c-.64-.31-1.16-.8-1.56-1.48s-.6-1.52-.6-2.53Zm2.68.01c0,.88.16,1.51.49,1.89.32.38.77.57,1.33.57s1.02-.19,1.34-.56c.32-.37.47-1.04.47-2.01,0-.82-.17-1.41-.5-1.79-.33-.37-.77-.56-1.34-.56s-.97.19-1.3.58-.49,1.01-.49,1.9Z"/>
        <path class="cls-1" d="m4.3,70.29h3.52l1.36,5.27,1.35-5.27h3.52v8.67h-2.2v-6.61l-1.69,6.61h-1.98l-1.69-6.61v6.61h-2.2v-8.67Z"/>
        <path class="cls-1" d="m15.43,74.63c0-1.42.39-2.51,1.18-3.3s1.88-1.18,3.29-1.18,2.55.39,3.33,1.16c.78.78,1.17,1.86,1.17,3.26,0,1.01-.17,1.84-.51,2.49-.34.65-.83,1.15-1.48,1.51-.64.36-1.45.54-2.41.54s-1.79-.16-2.43-.47c-.64-.31-1.16-.8-1.56-1.48s-.6-1.52-.6-2.53Zm2.68.01c0,.88.16,1.51.49,1.89.32.38.77.57,1.33.57s1.02-.19,1.34-.56c.32-.37.47-1.04.47-2.01,0-.82-.17-1.41-.5-1.79-.33-.37-.77-.56-1.34-.56s-.97.19-1.3.58-.49,1.01-.49,1.9Z"/>
        <path class="cls-1" d="m29.45,70.29h2.68v4.71c0,.99-.09,1.74-.26,2.25-.17.52-.53.95-1.06,1.31-.53.36-1.21.54-2.04.54-.88,0-1.55-.12-2.03-.35s-.85-.58-1.12-1.04c-.26-.45-.41-1.02-.46-1.69l2.56-.35c0,.38.04.67.1.85s.17.34.32.45c.1.07.25.11.44.11.3,0,.52-.11.66-.34.14-.22.21-.6.21-1.12v-5.34Z"/>
        <path class="cls-1" d="m34.03,70.29h2.68v8.67h-2.68v-8.67Z"/>
        <path class="cls-1" d="m37.76,70.29h2.98l1.75,2.92,1.75-2.92h2.96l-3.37,5.04v3.63h-2.68v-3.63l-3.37-5.04Z"/>
        <path class="cls-1" d="m53.38,77.53h-3.04l-.42,1.43h-2.74l3.26-8.67h2.92l3.26,8.67h-2.81l-.43-1.43Zm-.56-1.87l-.96-3.12-.95,3.12h1.9Z"/>
      </g>
    </g>
  </g>
</svg>