<?xml version="1.0" encoding="UTF-8"?>
<svg id="_レイヤー_2" data-name="レイヤー 2" xmlns="http://www.w3.org/2000/svg" viewBox="0 0 296.92 512.99">
  <defs>
    <style>
      .cls-1 {
        opacity: .26;
      }

      .cls-2 {
        fill: #fff;
        stroke-width: 0px;
      }
    </style>
  </defs>
  <g id="_文字" data-name="文字">
    <g class="cls-1">
      <path class="cls-2" d="m157.99,6.82c1.57,0,5.73,0,5.73,9.63v13.04c0,.32-.02.67-.05,1.02l-.61,5.92,5.78,1.41c22.32,5.45,42.9,18.32,57.95,36.24,15.51,18.47,24.05,41.31,24.05,64.31,0,18.09-4.33,35.68-12.19,49.53-1.58,2.79-4.11,5.81-6.78,9.01-6.39,7.65-13.63,16.31-12.83,27.5.08,1.13.24,2.27.49,3.4,2.56,11.91,13.33,20.91,22.84,28.85,3.54,2.95,6.88,5.74,9.19,8.22,12.26,13.14,21.85,28.41,28.51,45.37,6.66,16.96,10.04,34.72,10.04,52.79,0,38.24-14.74,74.19-41.51,101.23-26.75,27.02-62.31,41.9-100.13,41.9s-73.38-14.88-100.13-41.9c-26.77-27.04-41.51-62.99-41.51-101.23,0-26.06,7-51.57,20.24-73.77,5.77-9.68,14.42-17.84,23.58-26.47,11.5-10.85,23.4-22.07,29.52-36.9,4.77-11.59-5.48-21.61-13.72-29.66-3.5-3.42-7.13-6.96-8.52-9.55-7.73-14.37-11.82-31.08-11.82-48.31,0-22.5,9.5-45.26,26.75-64.08,16.18-17.66,38.43-30.95,61.05-36.47l5.78-1.41-.62-5.92c-.04-.35-.05-.69-.05-1.01v-13.04c0-5.31,4.25-9.63,9.46-9.63h9.53m0-6.82h-9.53c-8.96,0-16.28,7.4-16.28,16.45v13.04c0,.58.03,1.15.09,1.72-47.89,11.68-93,55.22-93,107.17,0,17.79,4.2,35.87,12.64,51.54,5.34,9.93,26.6,22.05,21.94,33.37-10.13,24.56-38.79,39.24-52.64,62.48C7.34,309.02,0,335.91,0,363.04c0,82.81,66.47,149.94,148.46,149.94s148.46-67.13,148.46-149.94c0-38.02-14.57-75.13-40.39-102.81-8.68-9.3-27.41-20.12-30.35-33.85-.17-.81-.29-1.62-.35-2.45-.89-12.56,12.99-22.53,18.74-32.65,8.98-15.82,13.08-34.77,13.08-52.9,0-51.96-39.32-95.49-87.2-107.17.06-.57.09-1.14.09-1.72v-13.04c0-9.05-3.59-16.45-12.55-16.45h0Z"/>
      <g>
        <path class="cls-2" d="m138.75,141.44c0,2.09-1.08,5.27-3.15,9.44-1.77,3.58-3.64,6.16-5.51,7.65-.99,1.29-2.27,1.99-3.84,1.99-1.78,0-2.76-.99-2.96-2.98,0-.6,1.08-2.28,3.44-4.97,1.58-1.78,2.86-4.17,3.84-7.06.78-1.88,1.28-3.77,1.67-5.56.39-1.29,1.47-1.99,3.44-2.19,1.97.2,3.05,1.39,3.05,3.67Zm-8.36-32.69c-3.25-1.89-5.02-6.46-5.21-13.71.09-6.36,2.36-10.14,6.79-11.53,3.34-.89,8.55-1.39,15.64-1.39,9.05.2,14.66.5,16.92.9,6.1.4,9.25,4.47,9.25,12.22s-1.77,12.52-5.11,13.32c-2.76,1.58-7.97,2.48-15.74,2.68v3.87c4.13.1,7.68.3,10.62.5,2.46.5,3.74,1.59,3.74,3.18s-.88,2.39-2.66,2.39c-4.33,0-8.17-.1-11.71-.2,0,1.79.1,3.48.1,5.07,7.68.1,13.87.3,18.79.6,2.16.2,3.34,1.19,3.34,3.08,0,1.99-.98,2.98-2.95,2.98-1.08,0-4.33-.2-9.84-.6h-11.61c-2.36,0-7.08.2-13.97.6-4.92.3-8.07.5-9.44.59-1.78,0-2.76-.99-2.96-3.18,0-1.79,1.38-2.88,4.33-3.28,6.3-.4,12.3-.7,18.01-.8.1-1.59.2-3.18.29-4.97-4.72.2-9.15.5-13.48.99-2.27,0-3.35-.99-3.35-3.08,0-1.79,1.18-2.89,3.54-3.38,4.53-.1,8.96-.3,13.48-.5,0-1.19,0-2.49.1-3.78-10.03,0-15.64-.89-16.92-2.58Zm4.72-20.07c-1.77,0-2.95,1.49-3.54,4.37l15.35.2c-.2-1.98-.3-3.88-.5-5.76-4.62.3-8.36.69-11.31,1.19Zm-1.77,13.71c1.18,1.79,5.8,2.79,13.97,2.79,0-2.19-.1-4.28-.1-6.26l-15.35-.1c.39,1.99.88,3.18,1.47,3.58Zm20.07,33.99c1.38,5.16,3.54,10.93,6.69,17.38.98,1.79,1.87,3.68,2.66,5.47.59,1.09.98,1.99.98,2.58,0,1.79-.88,2.69-2.66,2.69-1.67,0-3.25-1.79-4.82-5.17-1.67-3.48-3.74-8.64-6.2-15.4-2.76,6.96-4.92,12.02-6.4,15.1-1.77,3.77-3.44,5.76-4.92,5.76-1.78,0-2.95-.9-3.44-2.68,0-.6.29-1.39.98-2.28.69-1.29,1.57-2.79,2.75-4.67,4.72-7.95,7.68-14.21,8.96-18.98.39-1.19,1.18-1.89,2.46-2.09,1.77,0,2.75.79,2.95,2.29Zm10.43-48.1c-2.36-.4-6-.69-10.92-.79v5.86l14.36.2c-.4-3.48-1.48-5.27-3.44-5.27Zm.3,15.2c1.57-.2,2.56-1.69,3.05-4.47l-14.26-.1v6.16c6.1-.1,9.84-.6,11.22-1.59Zm3.54,36.47c2.17,5.07,4.72,9.44,7.58,13.12,1.57,2.19,2.46,3.67,2.66,4.47,0,1.78-.99,2.78-2.86,2.98-1.28,0-2.36-.4-3.25-1.19-1.97-1.88-4.53-5.76-7.67-11.72-1.58-3.48-2.46-5.56-2.66-6.36,0-1.89.88-3.08,2.75-3.48,1.57,0,2.75.8,3.44,2.19Z"/>
        <path class="cls-2" d="m153.76,183.92c.1,4.28-.07,6.56,1.3,6.86.98.6,8.34.45,20.11.45,3.58,0,5.95-.29,6.66,2.21.6,2.1-.19,4.24-2.62,4.67-1.16.2-3.76.08-11,.08.52,0,1.35.78,1.35,1.96,0,5.18-4.86,9.26-8,12.04-.88.8-1.77,1.49-2.56,1.99,3.94,3.18,6.89,6.86,8.76,11.23,5.41,12.72,8.16,24.14,8.16,34.28,0,2.59-1.18,3.98-3.44,3.98-1.18,0-2.26-1.29-3.25-3.78-.39-9.64-2.26-18.88-5.41-27.82-2.26-7.06-5.8-12.02-10.63-14.8-2.95,1.59-5.51,3.38-7.77,5.26-8.85,8.65-13.48,21.57-13.67,38.66,0,1.98-.98,2.98-2.95,2.98-2.36,0-3.64-1.48-3.84-4.27,0-14.6,4.23-27.32,12.69-38.06,2.65-2.98,5.31-5.26,8.07-6.96.29-.2.59-.3.98-.5-4.23-1.98-7.58-4.17-10.03-6.65-3.35-2.59-5.02-5.07-5.02-7.45,0-.1-.12-.4.1-.4-2.22,0-8.7.25-9.75-.03-1.81-.48-2.25-2.69-2.25-5.29,0-1.48,2.87-2.17,6.71-2.17,12.82,0,19.41-.3,19.41-1.09,1.18,0,1.09-2.98,1.09-7.55.69-1.39,1.77-2.19,3.34-2.19,2.16,0,3.24.8,3.44,2.38Zm10.75,14.4c-5.4-.98-24.25.75-27.54.75,1.38.6,1.48,1.19,3.06,2.98,3.24,3.58,6.1,5.86,8.55,6.76,1.58.7,3.05,1.39,4.43,1.99.2-.2.4-.3.59-.4,2.65-1.59,4.25-3.48,5.51-4.97,3.95-4.68,3.88-7.11,5.4-7.11Z"/>
        <path class="cls-2" d="m161.87,305.08c0,3.38-1.68,5.96-5.02,7.56-2.75,1.39-4.13,3.68-4.23,6.86,0,2.98-.1,5.66-.2,8.05,1.97-.2,4.13-.6,6.69-1.19,3.74-.89,6.99-2.08,9.93-3.48,3.25-1.69,5.32-2.59,6.1-2.59,2.16.6,3.34,1.69,3.34,3.48,0,1.49-1.47,2.69-4.23,3.68-3.05,1.39-6.4,2.59-10.04,3.58-4.82,1.29-8.95,1.98-12.3,2.19-.78,6.36-1.97,11.73-3.64,16.3-1.08,3.98-3.34,7.45-6.69,10.63-3.25,2.59-5.61,3.87-7.18,3.87-1.67,0-2.75-.99-3.25-2.98.19-1.29,1.37-2.59,3.74-3.98,3.94-2.19,6.69-5.86,8.27-11.23,1.28-3.68,2.26-7.95,2.85-12.72-3.25-.3-6.69-.99-10.23-2.19-3.64-.99-6.99-2.19-10.14-3.68-2.95-1.19-4.33-2.28-4.33-3.38.2-2.09,1.38-3.28,3.54-3.68,1.08.1,3.15.9,6.3,2.49,3.74,1.89,7.28,3.18,10.82,3.98,1.67.39,3.15.69,4.53.89.2-2.59.3-5.27.3-8.05,0-3.78,1.08-6.56,3.44-8.35,2.95-1.39,4.53-3.48,4.53-6.06,0-2.98-2.16-4.57-6.4-4.96-3.74,0-5.61,1.48-5.8,4.47,0,3.38.79,5.36,2.56,5.86.89.2,1.38.79,1.38,1.88-.3,1.59-1.28,2.28-2.85,2.28-5.21-.1-7.77-3.48-7.77-10.23.79-6.36,5.22-9.64,13.39-9.84,8.26,0,12.39,3.58,12.59,10.53Zm-11.12-26.63c1.28,1.59,1.97,3.29,1.97,5.07v.5c8.26.19,14.56.59,18.89,1.28,4.72,1.19,7.09,3.48,7.09,6.76-.1,1.68-.3,3.48-.5,5.36v10.13c0,1.79.1,3.28.2,4.37v1.99c0,1.48-.88,2.29-2.66,2.49-2.16,0-3.64-1.09-4.43-3.48.39-2.99.69-8.35.69-15.9.1-.79.19-1.38.19-1.98,0-2.39-2.16-3.88-6.49-4.47-3.34-.2-8.07-.4-13.97-.4-6.3.3-11.8.5-16.33.6-4.62.89-6.89,2.28-6.89,4.27v2.59c0,7.75.19,12.92.78,15.6-.49,2.19-1.87,3.38-4.03,3.48-1.97-.1-2.85-1.29-2.85-3.68,0-2.98.1-8.14.1-15.4,0-3.38-.3-5.46-.78-6.46.29-3.18,3.25-5.36,8.85-6.46,4.23-.3,9.35-.5,15.45-.69-.39-1.39-.99-2.59-1.77-3.78.78-2.19,1.97-3.38,3.44-3.58,1.38.4,2.36.99,3.05,1.78Z"/>
        <path class="cls-2" d="m173.57,415.47c-1.38,6.36-3.44,9.44-6,9.44-1.78,0-2.56-.79-2.56-2.49,0-.69.2-1.58.59-2.58.4-1,.79-1.89,1.18-2.79,1.28-3.78,1.97-7.95,1.97-12.32,0-1-.29-1.69-.69-1.99-.39-.2-1.18-.29-2.26-.29-1.97,0-4.92.49-8.95,1.28,0,1.59-.1,4.77-.2,9.34-.2,3.98-.2,7.06-.2,9.34,0,2.79-1.08,4.08-3.05,4.08s-2.75-1.29-2.75-3.88c0-2.19,0-5.06.09-8.74,0-4.38.1-7.36.1-8.75-4.43,1.19-8.36,2.29-11.71,3.28-.29,3.98-.39,7.36-.39,10.04,0,8.94,2.06,17.09,6.2,24.45,1.47,2.39,2.95,4.67,4.53,6.96,2.36,3.57,3.54,5.76,3.54,6.56s-.39,1.39-.98,1.99c-.69.5-1.37.8-2.16.8-1.18,0-2.36-.8-3.54-2.29-5.11-6.56-8.65-12.62-10.52-18.38-1.97-5.76-2.95-12.82-2.95-21.16,0-1.99,0-4.28.1-6.86-5.41,2.39-8.46,3.58-9.15,3.58-.79,0-1.38-.3-1.97-1-.59-.69-.88-1.38-.88-2.19,0-1.78,1.57-3.38,4.92-4.87.59-.19,2.95-.99,7.28-2.38,0-5.57-1.28-10.93-3.64-16.3-.59-1.29-.88-2.38-.88-3.29,0-2.19.88-3.28,2.65-3.28,1.58,0,2.86.5,3.64,1.29,1.38,1.49,2.46,4.67,3.34,9.44.69,3.98,1.08,7.46,1.08,10.33,5.02-1.49,8.86-2.59,11.51-3.28,0-1.39-.1-3.58-.1-6.56-.19-2.99-.19-5.17-.19-6.76,0-.99.29-1.88.99-2.68.59-.8,1.37-1.19,2.36-1.19,2.26,0,3.44,1.09,3.44,3.28,0,1.59-.1,3.68-.19,6.26-.2,3.28-.2,5.36-.2,6.26,3.74-.79,6.69-1.19,8.85-1.19,3.24,0,5.41.3,6.59.89,1.77.9,2.66,2.79,2.66,5.76,0,4.18-.49,8.45-1.47,12.82Z"/>
      </g>
    </g>
  </g>
</svg>