<?xml version="1.0" encoding="UTF-8"?>
<svg id="_レイヤー_2" data-name="レイヤー 2" xmlns="http://www.w3.org/2000/svg" viewBox="0 0 308.96 80.99">
  <defs>
    <style>
      .cls-1 {
        fill: #73462d;
      }

      .cls-1, .cls-2 {
        stroke-width: 0px;
      }

      .cls-2 {
        fill: #fff;
      }
    </style>
  </defs>
  <g id="_レイヤー_1-2" data-name="レイヤー 1">
    <g>
      <g>
        <g>
          <path class="cls-2" d="m110.27,56.59c0,1.5-.79,3.79-2.29,6.8-1.29,2.58-2.65,4.44-4.01,5.51-.72.93-1.65,1.44-2.79,1.44-1.29,0-2.01-.72-2.15-2.15,0-.43.78-1.65,2.5-3.58,1.15-1.29,2.08-3.01,2.79-5.09.57-1.36.94-2.72,1.22-4.01.29-.93,1.07-1.43,2.51-1.57,1.43.14,2.22,1,2.22,2.65Zm-6.09-23.57c-2.36-1.36-3.66-4.66-3.8-9.89.07-4.58,1.72-7.3,4.95-8.31,2.43-.64,6.23-1,11.39-1,6.59.14,10.67.36,12.32.64,4.44.29,6.73,3.22,6.73,8.81s-1.29,9.02-3.72,9.6c-2.01,1.15-5.8,1.79-11.46,1.94v2.79c3.01.07,5.58.21,7.74.35,1.79.36,2.72,1.15,2.72,2.29s-.65,1.72-1.94,1.72c-3.15,0-5.94-.07-8.52-.14,0,1.29.07,2.51.07,3.65,5.58.07,10.1.22,13.68.43,1.57.14,2.44.86,2.44,2.22,0,1.43-.72,2.15-2.15,2.15-.79,0-3.15-.15-7.16-.43h-8.45c-1.72,0-5.16.14-10.17.43-3.58.21-5.87.36-6.88.43-1.29,0-2.01-.72-2.15-2.29,0-1.29,1-2.08,3.16-2.36,4.58-.29,8.95-.5,13.11-.57.07-1.15.14-2.29.21-3.58-3.44.14-6.66.36-9.81.71-1.65,0-2.44-.71-2.44-2.22,0-1.29.86-2.08,2.57-2.44,3.3-.07,6.52-.21,9.81-.35,0-.86,0-1.79.07-2.72-7.3,0-11.39-.64-12.32-1.86Zm3.44-14.47c-1.29,0-2.15,1.07-2.58,3.15l11.18.15c-.14-1.43-.22-2.8-.36-4.16-3.37.21-6.08.5-8.23.86Zm-1.29,9.89c.86,1.29,4.23,2.01,10.17,2.01,0-1.58-.07-3.08-.07-4.52l-11.17-.07c.28,1.43.65,2.29,1.07,2.58Zm14.61,24.49c1.01,3.72,2.58,7.88,4.87,12.53.72,1.29,1.36,2.65,1.93,3.94.43.79.71,1.43.71,1.86,0,1.29-.65,1.94-1.93,1.94s-2.36-1.29-3.51-3.73c-1.22-2.51-2.72-6.23-4.51-11.1-2.01,5.02-3.58,8.67-4.66,10.89-1.29,2.72-2.51,4.16-3.58,4.16-1.29,0-2.15-.65-2.51-1.93,0-.43.22-1,.72-1.65.5-.93,1.15-2.01,2.01-3.37,3.44-5.73,5.58-10.24,6.51-13.68.29-.86.86-1.36,1.79-1.51,1.29,0,2.01.57,2.15,1.65Zm7.59-34.67c-1.72-.29-4.37-.5-7.95-.57v4.22l10.46.15c-.29-2.51-1.07-3.8-2.51-3.8Zm.22,10.96c1.15-.14,1.86-1.22,2.22-3.22l-10.39-.07v4.44c4.44-.07,7.16-.43,8.17-1.15Zm2.57,26.28c1.58,3.65,3.44,6.81,5.52,9.45,1.15,1.58,1.79,2.65,1.93,3.22,0,1.29-.71,2.01-2.07,2.15-.93,0-1.72-.29-2.36-.86-1.43-1.36-3.29-4.15-5.58-8.45-1.15-2.51-1.79-4.01-1.94-4.58,0-1.36.65-2.22,2.01-2.51,1.15,0,2,.57,2.5,1.57Z"/>
          <path class="cls-2" d="m110.27,73.83c-1.49,0-2.49-.77-2.91-2.23,0-.04-.01-.08-.01-.11,0-.56.28-1.22.8-1.9.45-.85,1.07-1.89,1.99-3.33,3.42-5.71,5.54-10.15,6.46-13.57.35-1.04,1.07-1.64,2.13-1.8h.02c1.53,0,2.43.7,2.6,1.97,1.05,3.85,2.67,8.04,4.84,12.43.61,1.11,1.23,2.37,1.94,3.95.52.95.75,1.57.75,2.03,0,1.52-.83,2.35-2.34,2.35-1.38,0-2.61-1.26-3.89-3.96-1.12-2.31-2.48-5.63-4.15-10.13-1.75,4.33-3.22,7.75-4.27,9.92-1.4,2.95-2.69,4.39-3.95,4.39Zm-2.09-2.4c.32,1.06,1,1.57,2.09,1.57.5,0,1.59-.51,3.21-3.92,1.12-2.32,2.73-6.07,4.65-10.86.07-.16.25-.23.39-.26.17,0,.32.11.38.27,1.83,4.99,3.3,8.61,4.5,11.06,1.09,2.32,2.15,3.5,3.14,3.5,1.06,0,1.52-.46,1.52-1.53,0-.45-.5-1.36-.67-1.66-.71-1.59-1.32-2.84-1.93-3.94-2.2-4.47-3.85-8.71-4.91-12.63,0-.02,0-.04-.01-.06-.07-.55-.33-1.29-1.74-1.29-.7.12-1.15.5-1.4,1.23-.94,3.47-3.08,7.98-6.55,13.76-.91,1.43-1.53,2.46-2,3.35-.42.55-.65,1.04-.67,1.4Zm-7-.68c-1.06,0-2.36-.44-2.56-2.52,0-.65.88-1.95,2.6-3.89,1.1-1.24,2.01-2.91,2.71-4.95.49-1.17.86-2.38,1.21-3.97.36-1.15,1.27-1.74,2.87-1.9,1.75.17,2.67,1.25,2.67,3.06,0,1.55-.76,3.84-2.33,6.99-1.32,2.63-2.71,4.54-4.13,5.65-.74.99-1.79,1.53-3.05,1.53Zm6.84-16.4c-1.53.16-1.91.77-2.07,1.28-.21.98-.59,2.51-1.23,4.05-.72,2.12-1.69,3.88-2.86,5.2-2.34,2.63-2.4,3.3-2.4,3.3.12,1.19.65,1.74,1.74,1.74,1,0,1.8-.42,2.47-1.28,1.39-1.11,2.7-2.92,3.97-5.45,1.49-2.99,2.25-5.22,2.25-6.62s-.59-2.11-1.85-2.24Zm28.72,16.4c-1.07,0-1.95-.33-2.67-.96-1.49-1.42-3.4-4.3-5.67-8.57-1.24-2.71-1.83-4.1-1.97-4.68-.01-1.68.79-2.69,2.32-3.01h.03c1.34,0,2.35.64,2.93,1.79,0,0,0,.02,0,.02,1.54,3.55,3.37,6.71,5.46,9.37,1.2,1.65,1.85,2.75,2.01,3.38.01,1.59-.86,2.49-2.43,2.66h-.01Zm-7.91-16.4c-1.06.23-1.6.9-1.6,2.09.16.56,1.1,2.66,1.9,4.41,2.22,4.17,4.08,6.98,5.5,8.32.56.5,1.25.75,2.08.75,1.12-.13,1.66-.68,1.66-1.74-.08-.26-.47-1.08-1.85-2.98-2.12-2.7-3.99-5.91-5.56-9.52-.44-.88-1.16-1.34-2.13-1.34Zm-26.83-3.22c-1.57,0-2.43-.9-2.59-2.67,0-1.57,1.18-2.5,3.51-2.81,5.07-.31,9.14-.5,12.78-.57.06-.88.11-1.78.17-2.74-3.52.15-6.5.38-9.33.69h0c-1.93,0-2.89-.89-2.89-2.63,0-1.48.98-2.44,2.9-2.84,3.1-.07,6-.2,9.07-.33l.42-.02c0-.61,0-1.26.04-1.92-7.07-.02-11.05-.67-12.15-1.95-2.47-1.47-3.79-4.9-3.94-10.19.07-4.73,1.84-7.65,5.24-8.72,2.56-.68,6.43-1.02,11.51-1.02,6.53.14,10.7.36,12.38.65,4.68.3,7.08,3.41,7.08,9.22s-1.34,9.32-3.98,9.98c-2.05,1.15-5.71,1.78-11.2,1.95v1.99c3.12.08,5.68.24,7.35.35,2.58.51,3.11,1.75,3.11,2.7,0,1.38-.83,2.13-2.35,2.13-3.05,0-5.77-.06-8.11-.13,0,.51.02,1.01.04,1.5.01.45.02.89.03,1.32,5.36.07,9.72.21,13.29.43,2.34.21,2.82,1.55,2.82,2.63,0,1.65-.91,2.56-2.56,2.56-.77,0-3.06-.14-7.19-.43h-8.42c-1.77,0-5.28.15-10.15.43-3.58.21-5.87.36-6.87.43h0Zm14.3-9.63c.11,0,.22.04.29.12.08.08.13.2.12.31-.07,1.29-.14,2.44-.21,3.58-.01.22-.19.38-.4.39-3.72.07-7.88.25-13.09.57-2.48.33-2.77,1.28-2.77,1.95.16,1.65.97,1.88,1.74,1.88.98-.07,3.27-.21,6.85-.43,4.88-.28,8.41-.43,10.2-.43h8.45c4.14.29,6.41.43,7.16.43,1.2,0,1.74-.54,1.74-1.74,0-.7-.21-1.64-2.06-1.81-3.64-.22-8.11-.36-13.65-.43-.23,0-.41-.19-.41-.41,0-.55-.02-1.12-.04-1.71-.02-.63-.04-1.28-.04-1.94,0-.11.04-.22.13-.29.08-.08.18-.14.3-.12,2.42.07,5.28.14,8.51.14,1.34,0,1.53-.66,1.53-1.31,0-.93-.81-1.57-2.39-1.89-1.68-.1-4.37-.27-7.66-.35-.23,0-.4-.19-.4-.41v-2.79c0-.23.18-.41.4-.41,5.54-.15,9.33-.78,11.27-1.88.04-.02.07-.03.11-.04,2.23-.52,3.41-3.7,3.41-9.19s-2.08-8.12-6.35-8.4c-1.69-.29-5.81-.5-12.3-.64-5,0-8.79.33-11.27.99-3.05.95-4.57,3.54-4.64,7.92.14,5.02,1.35,8.22,3.6,9.52.05.03.09.06.12.11.48.63,2.68,1.7,11.99,1.7.12,0,.23.05.3.13.08.08.12.2.11.31-.07.92-.07,1.82-.07,2.69,0,.22-.17.4-.4.41l-.81.04c-3.07.13-5.98.26-9.01.32-1.94.41-2.17,1.36-2.17,2.03,0,1.27.61,1.81,2.03,1.81,2.93-.33,6.05-.56,9.79-.71h.02Zm.21-10.64c-6,0-9.43-.69-10.47-2.12-.51-.39-.88-1.28-1.18-2.79-.02-.12,0-.25.08-.34.08-.1.2-.15.32-.15h0l11.17.07c.23,0,.41.19.41.41,0,.7.02,1.41.04,2.14.02.77.04,1.56.04,2.37,0,.23-.18.41-.41.41Zm-10.73-4.58c.32,1.37.65,1.73.79,1.82.04.03.08.07.11.11.44.67,2.26,1.78,9.41,1.82,0-.66-.02-1.3-.04-1.94-.01-.6-.03-1.18-.03-1.75l-10.25-.06Zm14.81,4.51c-.11,0-.21-.04-.29-.12s-.12-.19-.12-.29v-4.44c0-.11.04-.21.12-.29s.18-.12.29-.12h0l10.39.07c.12,0,.23.05.31.15.08.09.11.21.09.33-.39,2.17-1.2,3.34-2.47,3.55-1.12.72-3.77,1.09-8.31,1.16h0Zm.41-4.44v3.61c4.12-.09,6.65-.44,7.52-1.06.06-.04.12-.07.19-.08.84-.1,1.42-.89,1.77-2.4l-9.47-.07Zm10.05-3.87h0l-10.46-.15c-.23,0-.41-.19-.41-.41v-4.22c0-.11.04-.22.12-.29.08-.08.18-.13.3-.12,3.36.07,6.12.27,7.98.57,2.4.03,2.76,3.14,2.89,4.16.01.12-.02.24-.1.33-.08.08-.19.13-.31.13Zm-10.05-.96l9.58.13c-.4-2.65-1.35-2.97-2.04-2.97-.02,0-.04,0-.07,0-1.74-.29-4.32-.48-7.47-.56v3.39Zm-4.78.75h0l-11.18-.15c-.13,0-.24-.06-.32-.15s-.1-.22-.08-.34c.47-2.29,1.46-3.46,2.95-3.48,2.2-.36,4.97-.65,8.24-.86.22-.02.41.15.44.37.08.71.13,1.42.19,2.15.05.66.1,1.33.17,2.01.01.12-.03.23-.1.32-.08.08-.19.13-.31.13Zm-10.66-.96l10.2.13c-.05-.53-.09-1.05-.13-1.57-.05-.58-.09-1.15-.15-1.73-3.08.2-5.71.48-7.79.83-.02,0-.04,0-.07,0-.96,0-1.65.79-2.06,2.33Z"/>
        </g>
        <g>
          <path class="cls-2" d="m241.67,31.3c0,2.43-1.22,4.3-3.65,5.44-2.01,1-3.01,2.65-3.08,4.94,0,2.15-.07,4.08-.15,5.8,1.44-.14,3.01-.43,4.87-.86,2.72-.65,5.08-1.5,7.23-2.51,2.36-1.22,3.87-1.86,4.44-1.86,1.58.43,2.44,1.21,2.44,2.51,0,1.07-1.07,1.93-3.08,2.65-2.22,1-4.65,1.86-7.3,2.57-3.51.93-6.52,1.44-8.95,1.58-.57,4.58-1.44,8.45-2.66,11.75-.78,2.87-2.43,5.37-4.87,7.66-2.36,1.86-4.08,2.8-5.23,2.8-1.22,0-2.01-.72-2.36-2.15.15-.93,1-1.86,2.72-2.87,2.86-1.58,4.87-4.22,6.02-8.09.93-2.65,1.65-5.73,2.07-9.17-2.36-.21-4.87-.71-7.45-1.57-2.65-.72-5.08-1.58-7.38-2.65-2.15-.86-3.15-1.65-3.15-2.44.14-1.5,1-2.36,2.57-2.65.79.07,2.29.65,4.58,1.79,2.72,1.36,5.3,2.29,7.88,2.86,1.22.28,2.29.5,3.3.64.14-1.86.21-3.8.21-5.8,0-2.72.79-4.73,2.51-6.02,2.15-1,3.29-2.51,3.29-4.37,0-2.15-1.57-3.3-4.66-3.58-2.72,0-4.08,1.07-4.22,3.22,0,2.43.57,3.87,1.86,4.22.65.15,1.01.57,1.01,1.36-.22,1.15-.94,1.65-2.08,1.65-3.79-.07-5.66-2.51-5.66-7.38.57-4.58,3.8-6.95,9.74-7.09,6.02,0,9.02,2.58,9.17,7.59Zm-8.09-19.2c.94,1.15,1.44,2.36,1.44,3.65v.36c6.01.14,10.6.43,13.75.93,3.44.86,5.16,2.51,5.16,4.87-.07,1.22-.22,2.51-.36,3.87v7.31c0,1.29.07,2.36.15,3.15v1.44c0,1.07-.65,1.65-1.93,1.79-1.58,0-2.65-.79-3.22-2.51.29-2.15.5-6.02.5-11.46.07-.57.15-1,.15-1.43,0-1.72-1.57-2.79-4.73-3.22-2.43-.14-5.87-.29-10.17-.29-4.58.21-8.59.36-11.89.43-3.37.65-5.02,1.65-5.02,3.08v1.86c0,5.59.14,9.31.57,11.25-.36,1.58-1.36,2.44-2.93,2.51-1.44-.07-2.08-.93-2.08-2.65,0-2.15.07-5.88.07-11.1,0-2.43-.21-3.94-.57-4.65.22-2.29,2.36-3.87,6.45-4.66,3.08-.21,6.8-.36,11.24-.5-.28-1-.71-1.86-1.29-2.72.57-1.57,1.43-2.43,2.51-2.58,1,.29,1.72.72,2.22,1.29Z"/>
          <path class="cls-2" d="m221.69,74.19c-.98,0-2.26-.43-2.76-2.46-.02-.05-.02-.11,0-.17.17-1.09,1.1-2.09,2.92-3.16,2.82-1.56,4.73-4.12,5.83-7.86.92-2.62,1.59-5.53,2.01-8.68-2.37-.25-4.76-.77-7.11-1.55-2.75-.74-5.18-1.62-7.42-2.67-2.34-.94-3.39-1.8-3.39-2.81.15-1.71,1.13-2.73,2.91-3.05.04,0,.07,0,.11,0,.88.08,2.43.68,4.73,1.83,2.67,1.34,5.21,2.26,7.78,2.83,1.13.26,2.03.44,2.83.57.12-1.74.18-3.53.18-5.32,0-2.92.87-5,2.67-6.35,2.07-.98,3.13-2.36,3.13-4.04,0-1.19-.44-2.82-4.28-3.17-2.44,0-3.65.9-3.77,2.84,0,2.26.51,3.51,1.55,3.8.84.19,1.31.82,1.31,1.76-.25,1.38-1.11,2.06-2.49,2.06-4.03-.08-6.07-2.7-6.07-7.79.6-4.85,4.01-7.36,10.14-7.51,6.21,0,9.43,2.69,9.59,7.99h0c0,2.62-1.34,4.63-3.89,5.83-1.84.92-2.78,2.42-2.84,4.58,0,1.97-.06,3.76-.13,5.32,1.24-.15,2.64-.4,4.35-.8,2.53-.6,4.87-1.41,7.15-2.48,3.26-1.68,4.18-1.9,4.61-1.9.04,0,.07,0,.11.01,1.82.49,2.74,1.47,2.74,2.91,0,1.24-1.1,2.23-3.36,3.04-2.21,1-4.68,1.87-7.33,2.59-3.26.87-6.19,1.39-8.69,1.57-.59,4.52-1.45,8.29-2.63,11.5-.77,2.83-2.4,5.4-4.97,7.82-2.52,1.99-4.27,2.91-5.51,2.91Zm-1.94-2.58c.42,1.57,1.31,1.76,1.94,1.76,1.02,0,2.7-.91,4.98-2.71,2.43-2.28,3.98-4.73,4.72-7.45,1.21-3.26,2.07-7.07,2.64-11.69.03-.2.19-.35.39-.36,2.53-.15,5.51-.67,8.87-1.57,2.6-.7,5.04-1.56,7.24-2.55,1.89-.68,2.84-1.44,2.84-2.28,0-.65-.22-1.57-2.07-2.09-.38.03-1.42.38-4.2,1.81-2.34,1.1-4.73,1.92-7.32,2.54-1.97.45-3.53.73-4.93.87-.11,0-.24-.03-.32-.11-.09-.08-.14-.2-.13-.31.07-1.66.15-3.61.15-5.78.08-2.47,1.19-4.26,3.3-5.31,2.27-1.07,3.42-2.77,3.43-5.06-.15-4.84-3.01-7.19-8.76-7.19-5.73.14-8.78,2.34-9.33,6.73,0,4.56,1.72,6.84,5.25,6.91.98,0,1.5-.41,1.67-1.31,0-.63-.35-.81-.69-.88-1.47-.41-2.18-1.92-2.18-4.63.15-2.42,1.71-3.64,4.63-3.64,3.38.31,5.07,1.65,5.07,3.99,0,2.03-1.22,3.66-3.53,4.74-1.51,1.14-2.27,3-2.27,5.65,0,1.97-.07,3.93-.21,5.83,0,.11-.06.22-.15.29-.09.07-.21.1-.31.08-.94-.13-1.97-.33-3.34-.65-2.63-.59-5.24-1.53-7.97-2.9-2.63-1.32-3.83-1.68-4.38-1.75-1.37.27-2.06.99-2.18,2.27,0,.37.5,1.06,2.89,2.02,2.22,1.04,4.61,1.9,7.33,2.63,2.45.82,4.93,1.34,7.38,1.56.11.01.21.06.29.15.07.08.1.2.09.31-.42,3.37-1.13,6.48-2.09,9.25-1.17,3.93-3.2,6.66-6.21,8.32-1.51.88-2.33,1.7-2.49,2.49Zm-4.7-31.52c-1.68-.08-2.51-1.11-2.51-3.06,0-.84,0-1.92.02-3.24.02-2.05.05-4.68.05-7.86,0-2.82-.29-3.99-.53-4.47-.04-.07-.05-.15-.04-.23.24-2.51,2.52-4.2,6.78-5.02,3.23-.23,7.05-.37,10.76-.49-.25-.71-.6-1.38-1.07-2.1-.07-.11-.09-.25-.04-.37.78-2.14,1.97-2.73,2.84-2.84.06-.02.11,0,.17.01,1.06.3,1.85.76,2.42,1.42,0,0,0,0,0,0,1,1.23,1.52,2.53,1.53,3.87,6.14.15,10.4.45,13.4.93,3.66.91,5.5,2.68,5.5,5.27-.06,1.13-.19,2.28-.32,3.5l-.04.42v7.26c0,1.05.05,2.06.15,3.11v1.47c0,.89-.4,1.99-2.3,2.2h0c-1.82,0-3.04-.94-3.65-2.79-.02-.06-.03-.12-.02-.19.32-2.36.5-6.42.5-11.4l.05-.4c.05-.4.1-.72.1-1.03,0-1.47-1.47-2.42-4.37-2.82-3.24-.19-6.65-.28-10.11-.28-4.56.21-8.56.36-11.88.43-3.03.59-4.61,1.49-4.61,2.67v1.86c0,6.05.17,9.39.56,11.16.01.06.01.12,0,.18-.4,1.77-1.55,2.75-3.32,2.82Zm-2.17-18.88c.37.85.56,2.43.56,4.72,0,3.19-.02,5.82-.05,7.87-.01,1.32-.02,2.39-.02,3.23,0,1.9.86,2.2,1.69,2.24,1.31-.06,2.16-.77,2.49-2.1-.4-1.85-.56-5.23-.56-11.24v-1.86c0-2.2,3.05-3.04,5.35-3.49,3.38-.08,7.38-.22,11.94-.44h.02c3.49,0,6.91.1,10.19.29,3.41.46,5.12,1.69,5.12,3.64,0,.37-.05.73-.1,1.15l-.04.34c0,4.91-.17,8.95-.49,11.37.51,1.45,1.4,2.13,2.8,2.13,1.34-.15,1.52-.78,1.52-1.38v-1.44c-.1-1.03-.15-2.07-.15-3.15l.04-7.77c.13-1.21.25-2.35.32-3.43,0-2.14-1.63-3.64-4.85-4.44-2.95-.47-7.43-.77-13.66-.92-.23,0-.4-.19-.4-.41v-.36c0-1.16-.45-2.3-1.34-3.39-.44-.51-1.08-.88-1.93-1.13-.85.15-1.53.86-2.02,2.11.58.89.97,1.74,1.23,2.66.03.13,0,.25-.06.36-.08.1-.19.16-.32.17-3.87.13-7.9.27-11.23.5-3.74.73-5.79,2.13-6.05,4.18Z"/>
        </g>
        <g>
          <path class="cls-2" d="m307.47,39.25c-1,4.58-2.51,6.8-4.37,6.8-1.29,0-1.86-.57-1.86-1.79,0-.5.15-1.15.43-1.86.29-.71.57-1.36.86-2.01.93-2.72,1.43-5.73,1.43-8.88,0-.71-.21-1.22-.5-1.43-.29-.15-.86-.21-1.65-.21-1.44,0-3.58.36-6.52.93,0,1.15-.07,3.44-.14,6.73-.14,2.87-.14,5.08-.14,6.73,0,2.01-.79,2.94-2.22,2.94s-2.01-.93-2.01-2.79c0-1.57,0-3.65.07-6.3,0-3.15.07-5.3.07-6.3-3.22.86-6.09,1.65-8.52,2.36-.22,2.86-.29,5.3-.29,7.23,0,6.45,1.51,12.32,4.51,17.62,1.08,1.72,2.15,3.37,3.3,5.02,1.72,2.57,2.57,4.15,2.57,4.72s-.28,1-.72,1.43c-.5.36-1,.57-1.57.57-.86,0-1.72-.57-2.57-1.65-3.73-4.73-6.3-9.09-7.67-13.25-1.43-4.16-2.15-9.24-2.15-15.26,0-1.43,0-3.08.07-4.94-3.94,1.72-6.17,2.58-6.67,2.58-.57,0-1-.22-1.43-.72-.43-.5-.65-1-.65-1.57,0-1.29,1.15-2.44,3.58-3.51.43-.15,2.15-.72,5.29-1.72,0-4.01-.93-7.88-2.65-11.75-.43-.93-.65-1.72-.65-2.36,0-1.58.65-2.36,1.94-2.36,1.15,0,2.07.36,2.65.93,1,1.07,1.79,3.37,2.44,6.8.5,2.87.79,5.37.79,7.45,3.65-1.07,6.44-1.86,8.38-2.36,0-1-.07-2.57-.07-4.73-.15-2.15-.15-3.72-.15-4.87,0-.72.22-1.36.72-1.93.43-.57,1-.86,1.72-.86,1.65,0,2.51.79,2.51,2.36,0,1.15-.07,2.65-.15,4.51-.15,2.36-.15,3.87-.15,4.51,2.72-.57,4.87-.86,6.45-.86,2.36,0,3.94.21,4.8.65,1.29.64,1.93,2.01,1.93,4.15,0,3.01-.36,6.09-1.07,9.24Z"/>
          <path class="cls-2" d="m290.21,71.18c-.97,0-1.94-.61-2.9-1.8-3.86-4.89-6.39-9.27-7.74-13.38-1.44-4.17-2.17-9.35-2.17-15.39,0-1.28,0-2.7.05-4.3-4.81,2.08-5.86,2.35-6.23,2.35-.69,0-1.23-.27-1.74-.86-.5-.58-.74-1.19-.74-1.84,0-1.48,1.25-2.75,3.83-3.89.45-.15,2.08-.69,5.04-1.64-.04-3.74-.9-7.43-2.61-11.27-.46-1-.68-1.83-.68-2.53,0-2.3,1.28-2.78,2.35-2.78,1.21,0,2.26.37,2.94,1.05,1.05,1.12,1.88,3.41,2.55,7.02.48,2.79.74,5.08.79,6.98,3.18-.93,5.71-1.65,7.56-2.13,0-.34-.01-.73-.02-1.17-.02-.88-.04-1.95-.04-3.24-.15-2.14-.15-3.72-.15-4.87,0-.85.27-1.57.82-2.2.49-.66,1.18-1,2.03-1,1.88,0,2.92.98,2.92,2.78,0,.92-.04,2.09-.1,3.44l-.04,1.09c-.11,1.87-.14,3.2-.14,3.99,2.5-.51,4.53-.76,6.03-.76,2.43,0,4.06.23,4.98.69,1.43.72,2.16,2.24,2.16,4.52,0,3.04-.36,6.18-1.08,9.33h0c-1.03,4.73-2.64,7.12-4.77,7.12-1.51,0-2.28-.74-2.28-2.2,0-.56.16-1.25.46-2.01.29-.72.58-1.37.87-2.02.92-2.7,1.39-5.64,1.39-8.71,0-.59-.17-.98-.33-1.1-.04-.01-.38-.13-1.4-.13-1.36,0-3.43.34-6.11.86,0,.71-.03,1.73-.06,3.05-.02.96-.05,2.08-.08,3.35-.14,2.87-.14,5.1-.14,6.72,0,2.77-1.43,3.35-2.63,3.35-1.11,0-2.42-.55-2.42-3.2,0-1.55,0-3.66.07-6.32,0-2.01.03-3.62.05-4.77,0-.38.01-.7.02-.98-3.2.85-5.67,1.54-7.71,2.14-.18,2.42-.27,4.75-.27,6.92,0,6.34,1.5,12.2,4.46,17.42,1.12,1.79,2.2,3.42,3.28,4.98,2.37,3.55,2.65,4.53,2.65,4.96,0,.8-.45,1.34-.84,1.73-.67.48-1.24.69-1.86.69Zm-12.32-35.92c.08,0,.16.02.23.07.12.08.19.22.18.36-.07,1.86-.07,3.49-.07,4.93,0,5.94.72,11.03,2.13,15.12,1.32,4.02,3.81,8.32,7.6,13.13.79.98,1.55,1.49,2.25,1.49.44,0,.86-.15,1.33-.5.38-.38.55-.7.55-1.1,0-.22-.25-1.11-2.51-4.5-1.09-1.56-2.17-3.21-3.31-5.03-3.04-5.36-4.57-11.36-4.57-17.84,0-2.28.1-4.72.29-7.26.01-.17.13-.31.29-.36,2.22-.65,4.93-1.41,8.53-2.37.11-.02.25,0,.36.07.1.08.16.2.16.33,0,.36,0,.88-.02,1.53-.02,1.16-.05,2.76-.05,4.77-.07,2.66-.07,4.77-.07,6.3,0,2.11.86,2.38,1.6,2.38s1.81-.26,1.81-2.53c0-1.63,0-3.88.14-6.75.02-1.26.05-2.38.08-3.34.04-1.53.06-2.67.06-3.37,0-.2.14-.37.33-.41,2.98-.58,5.12-.94,6.6-.94.89,0,1.49.08,1.83.26.48.35.73,1,.73,1.8,0,3.16-.49,6.19-1.45,9.01-.3.68-.59,1.32-.87,2.03-.26.65-.4,1.25-.4,1.7,0,1,.4,1.38,1.45,1.38,1.67,0,3.04-2.24,3.96-6.48h0c.71-3.1,1.07-6.18,1.07-9.15,0-1.97-.56-3.21-1.71-3.78-.79-.4-2.34-.61-4.61-.61-1.54,0-3.68.29-6.36.85-.12.04-.25,0-.35-.08-.09-.08-.15-.2-.15-.32,0-.65,0-2.16.15-4.54l.04-1.08c.06-1.34.1-2.5.1-3.41,0-1.33-.67-1.95-2.1-1.95-.59,0-1.04.23-1.39.69-.44.5-.64,1.05-.64,1.69,0,1.14,0,2.71.15,4.84,0,1.3.03,2.37.05,3.24.01.6.02,1.1.02,1.51,0,.19-.13.35-.31.4-1.95.51-4.77,1.3-8.37,2.36-.13.04-.26.01-.36-.06s-.17-.2-.17-.33c0-1.96-.26-4.37-.78-7.38-.64-3.4-1.42-5.62-2.33-6.59-.5-.5-1.36-.8-2.34-.8-.71,0-1.53.22-1.53,1.95,0,.58.21,1.31.61,2.19,1.81,4.06,2.68,7.96,2.68,11.92,0,.18-.11.34-.29.4-3.14,1-4.86,1.57-5.29,1.71-2.21.98-3.3,2-3.3,3.12,0,.46.17.87.55,1.3.35.42.67.58,1.11.58.2,0,1.23-.25,6.5-2.55.05-.02.11-.03.17-.03Z"/>
        </g>
      </g>
      <g>
        <path class="cls-2" d="m178.45,15.77c.07,3.06-.05,4.7.94,4.91.71.42,6.03.32,14.53.32,2.59,0,4.3-.21,4.82,1.58.44,1.5-.14,3.03-1.9,3.34-.84.15-2.71.06-7.94.06.37,0,.98.56.98,1.4,0,3.71-3.51,6.63-5.78,8.61-.65.57-1.28,1.07-1.85,1.42,2.84,2.28,4.97,4.91,6.32,8.04,3.91,9.09,5.9,17.26,5.9,24.52,0,1.85-.85,2.84-2.49,2.84-.86,0-1.64-.92-2.34-2.7-.29-6.89-1.64-13.5-3.91-19.89-1.63-5.05-4.2-8.6-7.67-10.59-2.13,1.14-3.98,2.41-5.62,3.76-6.39,6.18-9.73,15.42-9.88,27.65,0,1.42-.71,2.13-2.13,2.13-1.7,0-2.63-1.06-2.78-3.06,0-10.43,3.06-19.54,9.17-27.21,1.92-2.13,3.84-3.78,5.83-4.98.21-.15.43-.21.71-.36-3.06-1.41-5.47-2.98-7.26-4.75-2.41-1.85-3.62-3.62-3.62-5.33,0-.06-.08-.27.07-.27-1.6,0-6.29.17-7.05-.03-1.3-.35-1.62-1.92-1.62-3.78,0-1.06,2.07-1.55,4.85-1.55,9.26,0,14.02-.22,14.02-.78.86,0,.79-2.13.79-5.41.49-.98,1.28-1.56,2.41-1.56,1.57,0,2.35.57,2.49,1.7Zm7.77,10.3c-3.91-.7-17.52.54-19.89.54.99.42,1.07.85,2.2,2.13,2.34,2.56,4.41,4.19,6.18,4.83,1.14.49,2.2.99,3.2,1.42.15-.15.29-.21.43-.28,1.92-1.14,3.08-2.49,3.98-3.56,2.86-3.35,2.81-5.08,3.91-5.08Z"/>
        <path class="cls-2" d="m160.43,73.57c-1.34,0-2.98-.6-3.19-3.44,0-10.54,3.12-19.78,9.26-27.5,1.98-2.2,3.92-3.85,5.94-5.07-2.79-1.36-4.96-2.83-6.61-4.48-2.45-1.87-3.68-3.68-3.74-5.49-.38,0-.85.02-1.36.02-2.67.05-4.75.08-5.31-.07-1.73-.46-1.93-2.61-1.93-4.18,0-1.71,3.3-1.96,5.26-1.96,8.32,0,12.91-.19,13.65-.56.07-.14.21-.23.37-.23.38-.37.38-2.3.38-4.35v-.65c0-.06.01-.13.04-.19.59-1.17,1.55-1.78,2.78-1.78,1.76,0,2.73.69,2.9,2.07v.04l.02,1.13c.03,1.97.05,3.27.59,3.39.04,0,.09.02.13.05.52.29,4.83.27,10.28.27h4.77c2.2-.05,3.93-.04,4.48,1.88.28.95.18,1.9-.27,2.62-.41.66-1.09,1.09-1.95,1.24-.6.1-1.59.09-3.83.08-.83,0-1.83-.02-3.04-.02.15.28.25.62.25.98,0,3.76-3.4,6.72-5.65,8.69l-.27.23c-.49.44-.98.82-1.42,1.14,2.76,2.3,4.73,4.87,6,7.84,3.94,9.15,5.93,17.45,5.93,24.68,0,2.1-1.03,3.25-2.9,3.25-1.05,0-1.94-.97-2.72-2.96-.02-.04-.03-.09-.03-.14-.28-6.66-1.59-13.31-3.89-19.77-1.57-4.86-4.02-8.3-7.3-10.25-1.9,1.03-3.65,2.22-5.35,3.61-6.3,6.1-9.58,15.3-9.73,27.33,0,1.64-.9,2.54-2.54,2.54Zm2.47-46.15v.04c0,1.56,1.17,3.25,3.46,5.01,1.78,1.76,4.11,3.29,7.18,4.71.14.06.23.21.24.36,0,.15-.08.3-.21.38-.13.07-.24.12-.35.17-.12.05-.22.1-.33.17-1.97,1.19-3.85,2.8-5.76,4.92-6.01,7.55-9.06,16.62-9.06,26.93.13,1.77.9,2.65,2.36,2.65,1.19,0,1.72-.53,1.72-1.72.15-12.27,3.51-21.66,10-27.95,1.82-1.5,3.68-2.74,5.71-3.83.13-.06.27-.07.4,0,3.55,2.03,6.2,5.67,7.86,10.82,2.32,6.5,3.64,13.22,3.93,19.93.62,1.56,1.29,2.38,1.93,2.38,1.4,0,2.07-.79,2.07-2.43,0-7.11-1.97-15.31-5.87-24.36-1.29-2.99-3.32-5.57-6.2-7.88-.1-.08-.16-.21-.15-.35s.08-.25.19-.33c.53-.33,1.15-.81,1.79-1.38l.27-.24c2.26-1.98,5.37-4.68,5.37-8.06,0-.61-.42-.97-.56-.98-.23,0-.41-.19-.41-.41s.18-.41.4-.41h.01c1.74,0,3.11,0,4.19.02,2.11.01,3.16.02,3.68-.07.63-.11,1.11-.41,1.39-.86.32-.52.39-1.23.18-1.95-.37-1.26-1.4-1.31-3.68-1.29h-4.78c-6.92.02-9.85.02-10.63-.34-1.13-.28-1.15-1.67-1.19-4.17l-.02-1.1c-.08-.62-.4-1.32-2.07-1.32-.9,0-1.55.41-2,1.25v.54c0,2.92-.02,4.35-.59,4.92-.08.08-.18.15-.29.19-.4.49-2.55.84-14.34.84-3.05,0-4.44.59-4.44,1.14,0,2.07.42,3.15,1.32,3.39.5.13,3.36.08,5.08.04.75-.01,1.42-.02,1.86-.02.23,0,.41.18.41.41,0,.09-.02.17-.07.24Zm15.01,7.99c-.06,0-.11,0-.17-.03-.49-.21-1-.44-1.53-.68-.54-.24-1.09-.49-1.67-.74-1.79-.65-3.92-2.31-6.32-4.94-.34-.38-.59-.69-.79-.94-.47-.59-.66-.83-1.27-1.09-.18-.08-.28-.27-.24-.46.04-.19.21-.33.4-.33.66,0,2.25-.1,4.25-.23,5.13-.32,12.88-.82,15.71-.31.21.04.36.23.34.44s-.2.38-.41.38c-.29,0-.46.24-.98,1.16-.48.85-1.2,2.13-2.61,3.78-.87,1.03-2.06,2.45-4.08,3.65-.18.1-.27.14-.35.22-.08.08-.18.12-.29.12Zm-10.32-8.43c.16.17.31.36.49.58.19.25.43.54.76.91,2.3,2.52,4.33,4.11,6.01,4.72.6.26,1.16.51,1.7.75.44.2.87.39,1.29.57.09-.06.17-.1.25-.14,1.93-1.14,3.07-2.5,3.91-3.49,1.36-1.59,2.06-2.83,2.52-3.65.19-.34.36-.65.54-.89-3.35-.25-9.91.16-14.43.45-1.19.07-2.24.14-3.04.18Z"/>
      </g>
      <path class="cls-1" d="m66.56,12.45c-3.58-.67-7.14-.07-8.66.26.1-3-.04-5.31-.47-6.29-1.63-3.77-16.37-6.41-28.46-6.41S2.14,2.64.5,6.41c-1.64,3.77.94,26.32,4.79,34.13,4.16,8.43,7.81,14.74,23.68,14.74,13.03,0,17.82-4.25,21.42-10.44,9.38-2.2,23.36-13.04,24.36-21.05,1.13-9.07-4.16-10.58-8.19-11.34Zm2.27,12.98c-1.51,3.15-7.43,8.05-9.45,7.93-2.02-.12-2.65-2.64-.63-8.18,1.27-3.48,3.15-7.8,7.17-7.55,4.04.25,4.41,4.66,2.9,7.81Z"/>
      <g>
        <path class="cls-2" d="m22.67,16.88l1-.48,1.44-.82c.44-.24,1.99-1.32,2.23-1.53l1.42-1.34c.14-.14.36-.31.55-.31.6,0,.6.48.6.72l1.99,1.39,2.68,1.72,1.89,1.1c.17.1,1.72.91,3.86,1.32-.86,1.41-2.01,1.58-2.35,1.58-.24,0-.55-.12-.69-.24l-2.37-1.89-5.6-3.93-.17-.07-1.56,1.36-.79.62-2.3,1.58-1.96,1.22c-.34.22-1.92.98-2.32.98-.65,0-1.92-1.27-1.87-1.61,1.13-.19,2.35-.53,2.61-.65l1.72-.74Zm14.04-6.06c1.94.07,2.32.22,2.32.72s-.74.5-.98.5l-4.17-.14h-.36c-.02.34-.1,1.65-.17,1.89-.05.19-.17.43-.46.43-.67,0-.67-.88-.67-1.29s0-.86-.05-1.08l-3.45-.07h-2.37c-.02,1.39-.02,2.35-.67,2.35-.6,0-.63-1.25-.65-2.32-.33-.07-.43-.07-.86-.07l-2.47.05s-.96.1-1.15.1c-.72,0-.88-.41-.88-.6,0-.36.48-.91,1.65-.91.24,0,1.3.15,1.51.15l1.95.05c.12,0,.15,0,.26-.02,0-.19-.05-1.1-.05-1.29,0-.14,0-.86.67-.86.74,0,.74.77.74,1.1s-.02.72-.07,1.08c.26.05.33.02,1.07.05l4.34.07h.4c.02-.24.02-1.34.02-1.55,0-.24.07-.67.62-.67.79,0,.79.7.79.96,0,.21-.07,1.13-.02,1.29l3.14.12Zm-12.07,11.21c.43-.33.55-.46.79-.46.31,0,.34.24.34.5,0,.84-2.13,3.07-2.76,3.07-.55,0-1.46-.86-1.73-1.37,1.18-.29,2.4-.98,3.36-1.75Zm3.83-4.98c0-.46.27-.69.77-.69.57,0,.79.41.79.69l.02,2.15,2.35.15,2.42.07c.21,0,1.12.02,1.12.62,0,.43-.65.53-.74.53l-3.16-.1-1.96-.07-.07,4.46c0,.57-.1,2.56-.81,2.56-.45,0-.57-.69-.57-.91l-.05-3.9-.05-2.23-.22-.02-2.28-.04-2.47.07c-.34,0-.93-.07-.93-.57,0-.46.67-.77,1.36-.77.29,0,1.49.12,1.72.12h2.8l-.05-2.11Zm7.24,8.41c-.81,0-2.88-2.63-2.88-3.19,0-.14.15-.41.41-.41.14,0,.84.48,1.03.6,1.32.84,1.51.91,3.16,1.46-.6.89-1.05,1.53-1.72,1.53Z"/>
        <path class="cls-2" d="m23.67,33.54s.41-.69.74-.69c.17,0,.51.17.51.5,0,.38-.34,1.13-.53,1.53-.05.07-.33.67-.38.84l1.8-.02c.29,0,1.53.02,1.8.02.17-.02.86-.17,1.01-.17.31,0,.62.34.62.69,0,.19-.05.33-.17.55-.02.07-.19.4-.24.48l-.84,2.06c-1.35,3.28-3.48,5.01-4.17,5.58-.19.17-2.45,2.04-3.35,2.04-.36,0-.63-.17-.72-.21-.19-.15-1.22-.96-1.39-1.13.46-.07.96-.22,1.22-.34l1.63-.72c1.1-.48,2.88-1.84,3.64-2.87l-1.82-1.25c-.84-.57-.94-.65-.94-.89,0-.34.29-.65.48-.65.05,0,.43.05.67.19l1.96,1.22c.07.02.39.24.44.29.21-.29.26-.36.31-.46l.69-1.25c.15-.26.72-1.56.82-1.92l-.05-.05h-3.76q-.26,0-.38.02s-.19.24-.22.29l-1.19,1.51c-.34.41-1.61,1.65-2.21,1.65-.38,0-.5-.1-1.58-1,2.26-1.2,4-3.24,4.58-4.17l1.03-1.7Zm3.09-3.02l5.25.02c.07-2.11.07-2.32.79-2.32.41,0,.74.12.74.65,0,.29-.09,1.46-.07,1.7l3.95.07c1.49.02,2.45.09,2.45.74,0,.55-.77.52-1.13.52l-5.34-.12c-.07,1.36-.12,2.39-.77,2.39-.6,0-.6-.84-.6-1.67,0-.12,0-.55-.02-.74l-3.59-.02-1.65.02c-.02.26-.12,1.41-.19,1.65-.07.29-.24.74-.65.74-.52,0-.57-.5-.57-1.84q0-.29-.02-.52l-2.78.04-2.78.17c-.43.02-.79-.26-.79-.65,0-.63.98-.96,1.61-.96.19,0,1.28.1,1.3.1h3.4c-.05-1.63-.07-2.28.69-2.28.15,0,.79.07.79,1.03v1.27Zm9.47,5.9l-.05-.07-3.57-.05-.93.07-.05,5.82-.07,1.08c-.1,1.34-.1,1.7.81,1.72l2.73.05,1.99-.07c1.12-.05,1.8-.57,3.49-1.97,0,.91-.6,3.55-2.25,3.55-.21,0-1.17-.07-1.36-.07l-3.69-.07-2.23.05c-1.39.02-1.35-.34-1.28-1.05l.19-2.06.1-1.1.1-4.5c0-.36-.22-2.2-.22-2.28,0-.19.17-.62.67-.65.15,0,.72.29.86.29.17,0,.89-.05,1.06-.05l3.45.05c.22,0,.41-.02.69-.12.15-.05.58-.21.67-.21.17,0,.65.21.65.65,0,.19-.21.98-.24,1.15-.02.1-.07.41-.07.74l-.05,2.59c-.02,1.15-.05,1.77-.67,2.23-.77.6-2.06.72-2.28.72-.34,0-.86,0-1.39-1.87.69.02.88.02,1.12.02,1.13,0,1.65-.27,1.68-1.03l.12-3.54Z"/>
      </g>
      <g>
        <path class="cls-1" d="m10.51,59.66h2.74v3.35l2.87-3.35h3.65l-3.24,3.35,3.39,5.52h-3.38l-1.87-3.65-1.42,1.48v2.17h-2.74v-8.87Z"/>
        <path class="cls-1" d="m26.6,59.66h2.74v5.29c0,.52-.08,1.02-.25,1.48-.16.47-.42.88-.77,1.22-.35.35-.72.59-1.1.73-.53.2-1.17.3-1.92.3-.43,0-.9-.03-1.41-.09-.51-.06-.94-.18-1.28-.36-.34-.18-.65-.44-.94-.77-.28-.33-.48-.67-.59-1.02-.17-.56-.25-1.07-.25-1.5v-5.29h2.74v5.41c0,.48.13.86.4,1.13.27.27.64.41,1.12.41s.84-.13,1.11-.4c.27-.27.4-.65.4-1.14v-5.41Z"/>
        <path class="cls-1" d="m31.19,68.53v-8.87h4.57c.85,0,1.5.07,1.94.22s.81.42,1.08.81c.27.4.41.88.41,1.44,0,.49-.1.92-.31,1.27-.21.36-.5.65-.86.87-.23.15-.56.26-.96.36.33.11.56.22.71.33.1.07.25.23.44.46.19.24.32.42.38.55l1.33,2.57h-3.1l-1.46-2.71c-.19-.35-.35-.58-.5-.69-.2-.13-.42-.2-.67-.2h-.24v3.6h-2.75Zm2.75-5.28h1.16c.13,0,.37-.04.73-.12.18-.04.33-.13.44-.28.12-.15.17-.32.17-.51,0-.29-.09-.51-.27-.66s-.52-.23-1.02-.23h-1.21v1.8Z"/>
        <path class="cls-1" d="m40.45,64.1c0-1.45.4-2.57,1.21-3.38.81-.81,1.93-1.21,3.37-1.21s2.61.4,3.41,1.19c.8.79,1.2,1.9,1.2,3.33,0,1.04-.17,1.89-.52,2.55-.35.67-.85,1.18-1.51,1.55-.66.37-1.48.56-2.47.56s-1.83-.16-2.49-.48c-.65-.32-1.19-.82-1.59-1.51s-.61-1.55-.61-2.59Zm2.74.01c0,.9.17,1.54.5,1.93.33.39.79.59,1.36.59s1.05-.19,1.37-.58c.32-.38.48-1.07.48-2.06,0-.84-.17-1.44-.51-1.83-.33-.38-.79-.58-1.37-.58s-1,.2-1.33.59-.5,1.04-.5,1.94Z"/>
        <path class="cls-1" d="m4.4,71.96h3.61l1.39,5.4,1.38-5.4h3.6v8.87h-2.25v-6.77l-1.73,6.77h-2.03l-1.73-6.77v6.77h-2.25v-8.87Z"/>
        <path class="cls-1" d="m15.79,76.4c0-1.45.4-2.57,1.21-3.38s1.93-1.21,3.37-1.21,2.61.4,3.41,1.19c.8.79,1.2,1.9,1.2,3.33,0,1.04-.17,1.89-.52,2.55-.35.67-.85,1.18-1.51,1.55-.66.37-1.48.56-2.47.56s-1.83-.16-2.49-.48c-.65-.32-1.19-.82-1.59-1.51s-.61-1.55-.61-2.59Zm2.74.01c0,.9.17,1.54.5,1.93.33.39.79.59,1.36.59s1.05-.19,1.37-.58c.32-.38.48-1.07.48-2.06,0-.84-.17-1.44-.51-1.83-.33-.38-.79-.58-1.37-.58s-1,.2-1.33.59-.5,1.04-.5,1.94Z"/>
        <path class="cls-1" d="m30.15,71.96h2.75v4.82c0,1.01-.09,1.78-.27,2.31-.18.53-.54.98-1.08,1.34-.54.37-1.24.55-2.09.55-.9,0-1.59-.12-2.08-.36s-.87-.6-1.14-1.07c-.27-.46-.42-1.04-.47-1.73l2.62-.36c0,.39.04.68.1.87s.17.34.33.46c.1.08.25.11.45.11.31,0,.53-.11.67-.34.14-.23.21-.61.21-1.15v-5.47Z"/>
        <path class="cls-1" d="m34.84,71.96h2.75v8.87h-2.75v-8.87Z"/>
        <path class="cls-1" d="m38.66,71.96h3.05l1.79,2.99,1.79-2.99h3.03l-3.45,5.16v3.72h-2.75v-3.72l-3.45-5.16Z"/>
        <path class="cls-1" d="m54.65,79.37h-3.11l-.43,1.46h-2.8l3.33-8.87h2.99l3.34,8.87h-2.87l-.44-1.46Zm-.57-1.92l-.98-3.19-.97,3.19h1.95Z"/>
      </g>
    </g>
  </g>
</svg>